<?xml version="1.0" encoding="UTF-8" standalone="no"?>
<!-- Created with Inkscape (http://www.inkscape.org/) -->

<svg
   width="55.975929mm"
   height="140.49512mm"
   viewBox="0 0 55.975929 140.49512"
   version="1.1"
   id="svg1"
   inkscape:version="1.3 (0e150ed6c4, 2023-07-21)"
   sodipodi:docname="happy.svg"
   xmlns:inkscape="http://www.inkscape.org/namespaces/inkscape"
   xmlns:sodipodi="http://sodipodi.sourceforge.net/DTD/sodipodi-0.dtd"
   xmlns="http://www.w3.org/2000/svg"
   xmlns:svg="http://www.w3.org/2000/svg">
  <sodipodi:namedview
     id="namedview1"
     pagecolor="#505050"
     bordercolor="#ffffff"
     borderopacity="1"
     inkscape:showpageshadow="0"
     inkscape:pageopacity="0"
     inkscape:pagecheckerboard="1"
     inkscape:deskcolor="#505050"
     inkscape:document-units="mm"
     inkscape:zoom="0.27558329"
     inkscape:cx="168.73302"
     inkscape:cy="859.99409"
     inkscape:window-width="1900"
     inkscape:window-height="1060"
     inkscape:window-x="0"
     inkscape:window-y="0"
     inkscape:window-maximized="1"
     inkscape:current-layer="layer1" />
  <defs
     id="defs1" />
  <g
     inkscape:label="Layer 1"
     inkscape:groupmode="layer"
     id="layer1"
     transform="translate(-70.908333,-22.754177)">
    <g
       id="g97"
       transform="translate(-20.810016,-95.02491)"
       style="fill:#ffaa00;fill-opacity:1"
       inkscape:export-filename="happy.png"
       inkscape:export-xdpi="217.80791"
       inkscape:export-ydpi="217.80791">
      <rect
         style="font-variation-settings:normal;opacity:1;vector-effect:none;fill:#ffaa00;fill-opacity:1;stroke-width:0.389464;stroke-linecap:butt;stroke-linejoin:miter;stroke-miterlimit:4;stroke-dasharray:none;stroke-dashoffset:0;stroke-opacity:1;-inkscape-stroke:none"
         id="rect90"
         width="35.644238"
         height="50.577023"
         x="102.02531"
         y="202.09563" />
      <path
         id="path97"
         style="fill:#ffaa00;fill-opacity:1;stroke-width:0.389465"
         d="m 119.7063,147.86928 c -15.4573,0 -27.987941,12.53065 -27.987951,27.98795 v 26.23819 h 55.975911 v -26.23819 c -1e-5,-15.4573 -12.53065,-27.98795 -27.98796,-27.98795 z" />
    </g>
    <path
       id="path102"
       style="font-variation-settings:normal;vector-effect:none;fill:#ccb695;fill-opacity:1;stroke-width:0.389464;stroke-linecap:butt;stroke-linejoin:miter;stroke-miterlimit:4;stroke-dasharray:none;stroke-dashoffset:0;stroke-opacity:1;-inkscape-stroke:none"
       d="m 72.366121,107.07057 a 3.8339617,3.8339617 0 0 0 3.83388,3.83388 3.8339617,3.8339617 0 0 0 3.83387,-3.83388 z" />
    <path
       id="path103"
       style="font-variation-settings:normal;vector-effect:none;fill:#ccb695;fill-opacity:1;stroke-width:0.389464;stroke-linecap:butt;stroke-linejoin:miter;stroke-miterlimit:4;stroke-dasharray:none;stroke-dashoffset:0;stroke-opacity:1;-inkscape-stroke:none"
       d="m 117.7587,107.07057 a 3.8339617,3.8339617 0 0 0 3.83387,3.83388 3.8339617,3.8339617 0 0 0 3.83388,-3.83388 z" />
    <path
       id="path104"
       style="font-variation-settings:normal;vector-effect:none;fill:#3b3b3b;fill-opacity:1;stroke-width:0.569032;stroke-linecap:butt;stroke-linejoin:miter;stroke-miterlimit:4;stroke-dasharray:none;stroke-dashoffset:0;stroke-opacity:1;-inkscape-stroke:none"
       d="m 83.861141,157.64774 a 5.6016689,5.6016689 0 0 0 5.60154,5.60155 5.6016689,5.6016689 0 0 0 5.60154,-5.60155 z" />
    <path
       id="path105"
       style="font-variation-settings:normal;vector-effect:none;fill:#3b3b3b;fill-opacity:1;stroke-width:0.569032;stroke-linecap:butt;stroke-linejoin:miter;stroke-miterlimit:4;stroke-dasharray:none;stroke-dashoffset:0;stroke-opacity:1;-inkscape-stroke:none"
       d="m 102.48145,157.64775 a 5.6016689,5.6016689 0 0 0 5.60154,5.60155 5.6016689,5.6016689 0 0 0 5.60155,-5.60155 z" />
    <g
       id="g112"
       transform="matrix(0.3546517,0,0,0.3546517,-831.35454,-172.23104)">
      <circle
         style="opacity:1;fill:#000000;fill-opacity:1;stroke:#ffff00;stroke-width:1.95008;stroke-miterlimit:4;stroke-dasharray:none;stroke-opacity:1"
         id="circle105"
         cx="2647.8533"
         cy="812.95709"
         r="13.763307" />
      <circle
         style="opacity:1;fill:#000000;fill-opacity:1;stroke:#ffff00;stroke-width:1.95008;stroke-miterlimit:4;stroke-dasharray:none;stroke-opacity:1"
         id="circle106"
         cx="2647.8533"
         cy="812.95709"
         r="7.6617098" />
      <path
         style="fill:none;stroke:#ffff00;stroke-width:2;stroke-linecap:butt;stroke-linejoin:miter;stroke-miterlimit:4;stroke-dasharray:none;stroke-opacity:1"
         d="m 2647.8533,808.53655 v 3.8354"
         id="path106" />
      <path
         style="fill:none;stroke:#ffff00;stroke-width:2;stroke-linecap:butt;stroke-linejoin:miter;stroke-miterlimit:4;stroke-dasharray:none;stroke-opacity:1"
         d="m 2645.2073,808.53655 v 3.8354"
         id="path107" />
      <path
         style="fill:none;stroke:#ffff00;stroke-width:2;stroke-linecap:butt;stroke-linejoin:miter;stroke-miterlimit:4;stroke-dasharray:none;stroke-opacity:1"
         d="m 2650.4993,808.53655 v 3.8354"
         id="path108" />
      <path
         style="fill:none;stroke:#ffff00;stroke-width:2;stroke-linecap:butt;stroke-linejoin:miter;stroke-miterlimit:4;stroke-dasharray:none;stroke-opacity:1"
         d="m 2647.8533,813.00181 v 3.8354"
         id="path109" />
      <path
         style="fill:none;stroke:#ffff00;stroke-width:2;stroke-linecap:butt;stroke-linejoin:miter;stroke-miterlimit:4;stroke-dasharray:none;stroke-opacity:1"
         d="m 2645.2073,814.58931 v 2.2479"
         id="path110"
         sodipodi:nodetypes="cc" />
      <path
         style="fill:none;stroke:#ffff00;stroke-width:2;stroke-linecap:butt;stroke-linejoin:miter;stroke-miterlimit:4;stroke-dasharray:none;stroke-opacity:1"
         d="m 2650.4993,814.06014 v 3.30623"
         id="path111"
         sodipodi:nodetypes="cc" />
      <path
         style="color:#000000;fill:#ffff00;-inkscape-stroke:none"
         d="m 2647.8535,801.32617 c -0.3089,0 -0.6164,0.0124 -0.9199,0.0352 l 0.1484,1.96679 c 0.2543,-0.019 0.5116,-0.0293 0.7715,-0.0293 0.2599,0 0.5174,0.0102 0.7715,0.0293 l 0.1465,-1.96679 c -0.3037,-0.0229 -0.6091,-0.0352 -0.918,-0.0352 z m -2.7383,0.31055 c -0.6049,0.13973 -1.1924,0.3263 -1.7578,0.55273 l 0.7324,1.83008 c 0.4721,-0.18907 0.9631,-0.34413 1.4688,-0.46094 z m 5.4766,0.002 -0.4434,1.91992 c 0.5056,0.11682 0.9946,0.27185 1.4668,0.46094 l 0.7344,-1.83008 c -0.5654,-0.22642 -1.153,-0.41105 -1.7578,-0.55078 z m -8.8867,1.36524 c -0.5312,0.31505 -1.0354,0.6685 -1.5078,1.05859 l 1.2558,1.52148 c 0.3942,-0.3254 0.8144,-0.62179 1.2578,-0.88476 z m 12.2969,0 -1.0059,1.69531 c 0.4434,0.26298 0.8639,0.55946 1.2578,0.88476 l 1.2559,-1.52148 c -0.4725,-0.39017 -0.9767,-0.74357 -1.5078,-1.05859 z m -15.1309,2.33984 c -0.408,0.46095 -0.7784,0.954 -1.1094,1.47461 l 1.6621,1.05859 c 0.2748,-0.43215 0.5843,-0.84295 0.9239,-1.22656 z m 17.9648,0 -1.4765,1.30664 c 0.3395,0.38367 0.6469,0.79432 0.9219,1.22656 l 1.664,-1.05859 c -0.3311,-0.52052 -0.7015,-1.01372 -1.1094,-1.47461 z m -19.9394,3.10937 c -0.2419,0.56325 -0.4381,1.14945 -0.5879,1.75391 l 1.9121,0.47461 c 0.1238,-0.4996 0.2881,-0.98506 0.4883,-1.45117 z m 21.9121,0 -1.8106,0.77735 c 0.2002,0.46611 0.3626,0.95157 0.4864,1.45117 l 1.914,-0.47461 c -0.1498,-0.60446 -0.348,-1.19066 -0.5898,-1.75391 z m -22.7988,3.57813 c -0.025,0.30739 -0.037,0.61594 -0.037,0.92578 0,0.31216 0.013,0.61917 0.037,0.92188 l 1.9668,-0.1543 c -0.02,-0.25489 -0.031,-0.51088 -0.031,-0.76758 0,-0.25901 0.01,-0.51344 0.029,-0.76367 z m 23.6875,0.004 -1.9668,0.15429 c 0.02,0.25489 0.031,0.51089 0.031,0.76758 0,0.2567 -0.011,0.51269 -0.031,0.76758 l 1.9668,0.1543 c 0.024,-0.30272 0.035,-0.60972 0.035,-0.92188 0,-0.31215 -0.011,-0.61916 -0.035,-0.92187 z m -21.4766,3.19726 -1.9121,0.47461 c 0.1498,0.60448 0.346,1.19066 0.5879,1.75391 l 1.8125,-0.77735 c -0.2002,-0.46611 -0.3645,-0.95156 -0.4883,-1.45117 z m 19.2637,0 c -0.1237,0.49949 -0.2862,0.98506 -0.4864,1.45117 l 1.8106,0.77735 c 0.2418,-0.56325 0.4401,-1.14932 0.5898,-1.75391 z m -18.0606,2.80469 -1.6621,1.05859 c 0.331,0.52063 0.7014,1.01367 1.1094,1.47461 l 1.4766,-1.30664 c -0.3396,-0.3836 -0.6491,-0.79441 -0.9239,-1.22656 z m 16.8575,0 c -0.2748,0.43215 -0.5824,0.84296 -0.9219,1.22656 l 1.4746,1.30664 c 0.408,-0.46094 0.7803,-0.95398 1.1113,-1.47461 z m -14.8282,2.29297 -1.2558,1.52148 c 0.4724,0.39009 0.9766,0.74355 1.5078,1.0586 l 1.0058,-1.69532 c -0.4434,-0.26297 -0.8636,-0.55935 -1.2578,-0.88476 z m 12.8008,0 c -0.3941,0.32541 -0.8144,0.62181 -1.2578,0.88476 l 1.0059,1.69532 c 0.5312,-0.31505 1.0334,-0.66853 1.5058,-1.0586 z m -10.1641,1.56445 -0.7324,1.83008 c 0.5654,0.22643 1.1529,0.413 1.7578,0.55273 l 0.4434,-1.92187 c -0.5057,-0.11681 -0.9967,-0.27187 -1.4688,-0.46094 z m 7.5254,0 c -0.4722,0.1891 -0.9612,0.34413 -1.4668,0.46094 l 0.4434,1.92187 c 0.6048,-0.13972 1.1924,-0.32631 1.7578,-0.55273 z m -4.5332,0.69141 -0.1484,1.96679 c 0.3033,0.0227 0.6108,0.0352 0.9199,0.0352 0.3091,0 0.6147,-0.0124 0.918,-0.0352 l -0.1465,-1.96679 c -0.2546,0.0191 -0.5118,0.0293 -0.7715,0.0293 -0.2597,0 -0.5169,-0.0102 -0.7715,-0.0293 z"
         id="path112" />
    </g>
    <g
       id="g113"
       transform="matrix(0.49653235,0,0,0.49653235,-1109.5357,-282.49357)"
       style="stroke:#0000ff;stroke-opacity:1">
      <circle
         style="opacity:1;fill:#000000;fill-opacity:1;stroke:#0000ff;stroke-width:1.5;stroke-miterlimit:4;stroke-dasharray:none;stroke-opacity:1"
         id="circle112"
         cx="2412.8271"
         cy="871.88611"
         r="7.5944715" />
      <circle
         style="opacity:1;fill:none;fill-opacity:1;stroke:#0000ff;stroke-width:1.5;stroke-miterlimit:4;stroke-dasharray:none;stroke-opacity:1"
         id="circle113"
         cx="2412.8271"
         cy="871.88611"
         r="3.1987891" />
    </g>
    <g
       id="g115"
       transform="matrix(0.49653235,0,0,0.49653235,-1110.6412,-298.60769)"
       style="fill:#ff5599;fill-opacity:1;stroke:#7fff2a;stroke-opacity:1">
      <circle
         style="opacity:1;fill:#ff5599;fill-opacity:1;stroke:#7fff2a;stroke-width:1.5;stroke-miterlimit:4;stroke-dasharray:none;stroke-opacity:1"
         id="circle114"
         cx="2412.8271"
         cy="871.88611"
         r="7.5944715" />
      <circle
         style="opacity:1;fill:#ff5599;fill-opacity:1;stroke:#7fff2a;stroke-width:1.5;stroke-miterlimit:4;stroke-dasharray:none;stroke-opacity:1"
         id="circle115"
         cx="2412.8271"
         cy="871.88611"
         r="3.1987891" />
    </g>
    <g
       id="g119"
       transform="matrix(0.47962618,-0.12851544,0.12851544,0.47962618,-1158.3263,12.77682)">
      <path
         id="path115"
         style="fill:#ffffff;stroke:#0000ff;stroke-width:1.5;stroke-linecap:round;stroke-linejoin:round;stroke-miterlimit:4;stroke-dasharray:none"
         d="m 2367.5383,842.28508 h 14.4893 v 9.34791 h -14.4893 z"
         sodipodi:nodetypes="ccccc" />
      <path
         style="font-variation-settings:normal;opacity:1;fill:#ffffff;fill-opacity:1;stroke:#0000ff;stroke-width:1.5;stroke-linecap:round;stroke-linejoin:round;stroke-miterlimit:4;stroke-dasharray:none;stroke-dashoffset:0;stroke-opacity:1;stop-color:#000000;stop-opacity:1"
         d="m 2370.796,845.24673 v 3.42456"
         id="path116" />
      <path
         style="font-variation-settings:normal;opacity:1;fill:#ffffff;fill-opacity:1;stroke:#0000ff;stroke-width:1.5;stroke-linecap:round;stroke-linejoin:round;stroke-miterlimit:4;stroke-dasharray:none;stroke-dashoffset:0;stroke-opacity:1;stop-color:#000000;stop-opacity:1"
         d="m 2376.0877,845.24673 v 3.42456"
         id="path117" />
      <path
         style="font-variation-settings:normal;opacity:1;fill:#ffffff;fill-opacity:1;stroke:#0000ff;stroke-width:1.5;stroke-linecap:round;stroke-linejoin:round;stroke-miterlimit:4;stroke-dasharray:none;stroke-dashoffset:0;stroke-opacity:1;stop-color:#000000;stop-opacity:1"
         d="m 2373.4417,845.24673 v 3.42456"
         id="path118" />
      <path
         style="font-variation-settings:normal;opacity:1;fill:#ffffff;fill-opacity:1;stroke:#0000ff;stroke-width:1.5;stroke-linecap:round;stroke-linejoin:round;stroke-miterlimit:4;stroke-dasharray:none;stroke-dashoffset:0;stroke-opacity:1;stop-color:#000000;stop-opacity:1"
         d="m 2378.7334,845.24673 v 3.42456"
         id="path119" />
    </g>
    <g
       id="g121"
       transform="matrix(0.47957222,0.12850098,-0.12850098,0.47957222,-937.13911,-601.51138)"
       style="fill:#ff6e6e;fill-opacity:1;stroke:#ffdd06;stroke-opacity:1">
      <circle
         style="fill:#ff6e6e;fill-opacity:1;stroke:#ffdd06;stroke-width:1.5;stroke-miterlimit:4;stroke-dasharray:none;stroke-opacity:1"
         id="circle119"
         cx="2384.3157"
         cy="871.88611"
         r="7.5944715" />
      <path
         id="path120"
         style="fill:#ff6e6e;fill-opacity:1;stroke:#ffdd06;stroke-width:1.5;stroke-linejoin:round;stroke-miterlimit:4;stroke-dasharray:none;stroke-opacity:1"
         d="m 2379.8316,871.15079 c 0,2.55172 0.866,3.99453 3.1547,3.99453 h 1.6563 1.3079 c 0.8242,1.8e-4 1.4923,-0.66565 1.4922,-1.48698 -1e-4,-0.82114 -0.6682,-1.48668 -1.4922,-1.4865 h -3.5033 c -1.4399,0 -2.6156,-1.02105 -2.6156,-1.02105 z"
         sodipodi:nodetypes="cscsscsc" />
      <ellipse
         style="font-variation-settings:normal;opacity:1;vector-effect:none;fill:#ff6e6e;fill-opacity:1;stroke:#ffdd06;stroke-width:1.5;stroke-linecap:round;stroke-linejoin:round;stroke-miterlimit:4;stroke-dasharray:none;stroke-dashoffset:0;stroke-opacity:1;-inkscape-stroke:none;stop-color:#000000;stop-opacity:1"
         id="ellipse120"
         cx="2384.7917"
         cy="870.23029"
         rx="1.9481896"
         ry="1.9415058" />
      <path
         style="font-variation-settings:normal;opacity:1;vector-effect:none;fill:#ff6e6e;fill-opacity:1;stroke:#ffdd06;stroke-width:1.5;stroke-linecap:round;stroke-linejoin:miter;stroke-miterlimit:4;stroke-dasharray:none;stroke-dashoffset:0;stroke-opacity:1;-inkscape-stroke:none;stop-color:#000000;stop-opacity:1"
         d="m 2386.7402,870.2303 h 1.3148"
         id="path121"
         sodipodi:nodetypes="cc" />
    </g>
    <g
       id="g125"
       transform="matrix(0.47957222,0.12850098,-0.12850098,0.47957222,-982.73021,-563.02528)">
      <circle
         style="opacity:1;fill:#ffffff;fill-opacity:1;stroke:#000000;stroke-width:1.5;stroke-miterlimit:4;stroke-dasharray:none;stroke-opacity:1"
         id="circle121"
         cx="2460.7874"
         cy="809.25995"
         r="7.5944715" />
      <path
         id="path122"
         style="opacity:1;fill:#ffffff;stroke:#000000;stroke-width:1.65819;stroke-linejoin:bevel;stop-color:#000000;stop-opacity:1"
         d="m 2460.7874,804.27354 h 2e-4 c 1.0271,0 1.7467,0.85724 1.8539,1.90987 l 0.5065,4.97641 c 0.1364,1.34022 -1.0527,2.43167 -2.3604,2.43167 h -2e-4 c -1.3077,0 -2.4968,-1.09145 -2.3604,-2.43167 l 0.5065,-4.97641 c 0.1072,-1.05263 0.8268,-1.90987 1.8539,-1.90987 z"
         sodipodi:nodetypes="sssssssss" />
      <path
         style="fill:none;stroke:#ff6600;stroke-width:1.80114;stroke-linecap:round;stroke-linejoin:miter;stroke-miterlimit:4;stroke-dasharray:none;stroke-opacity:1"
         d="m 2459.7841,807.22341 h 2.0063"
         id="path123" />
      <path
         style="fill:none;stroke:#ff6600;stroke-width:2;stroke-linecap:round;stroke-linejoin:miter;stroke-miterlimit:4;stroke-dasharray:none;stroke-opacity:1"
         d="m 2458.0537,812.76705 h 1.5286"
         id="path124"
         sodipodi:nodetypes="cc" />
      <path
         style="fill:none;stroke:#ff6600;stroke-width:2;stroke-linecap:round;stroke-linejoin:miter;stroke-miterlimit:4;stroke-dasharray:none;stroke-opacity:1"
         d="m 2461.9925,812.76705 h 1.5286"
         id="path125"
         sodipodi:nodetypes="cc" />
    </g>
    <g
       id="g126"
       style="stroke:#ffff00;stroke-opacity:1"
       transform="matrix(0.49653235,0,0,0.49653235,-1085.9987,-299.65591)">
      <circle
         style="opacity:1;fill:#000000;fill-opacity:1;stroke:#ffff00;stroke-width:1.5;stroke-miterlimit:4;stroke-dasharray:none;stroke-opacity:1"
         id="circle125"
         cx="2412.8271"
         cy="871.88611"
         r="7.5944715" />
      <circle
         style="opacity:1;fill:none;fill-opacity:1;stroke:#ffff00;stroke-width:1.5;stroke-miterlimit:4;stroke-dasharray:none;stroke-opacity:1"
         id="circle126"
         cx="2412.8271"
         cy="871.88611"
         r="3.1987891" />
    </g>
    <g
       id="g128"
       transform="matrix(0.49653235,0,0,0.49653235,-1091.2757,-288.14746)"
       style="stroke:#00ff00;stroke-opacity:1">
      <circle
         style="opacity:1;fill:#000000;fill-opacity:1;stroke:#00ff00;stroke-width:1.5;stroke-miterlimit:4;stroke-dasharray:none;stroke-opacity:1"
         id="circle127"
         cx="2412.8271"
         cy="871.88611"
         r="7.5944715" />
      <circle
         style="opacity:1;fill:none;fill-opacity:1;stroke:#00ff00;stroke-width:1.5;stroke-miterlimit:4;stroke-dasharray:none;stroke-opacity:1"
         id="circle128"
         cx="2412.8271"
         cy="871.88611"
         r="3.1987891" />
    </g>
    <g
       id="g130"
       transform="matrix(0.49653235,0,0,0.49653235,-1092.1027,-305.75991)"
       style="stroke:#00ff00;stroke-opacity:1">
      <circle
         style="opacity:1;fill:#000000;fill-opacity:1;stroke:#ff0000;stroke-width:1.5;stroke-miterlimit:4;stroke-dasharray:none;stroke-opacity:1"
         id="circle129"
         cx="2412.8271"
         cy="871.88611"
         r="7.5944715" />
      <circle
         style="opacity:1;fill:none;fill-opacity:1;stroke:#ff0000;stroke-width:1.5;stroke-miterlimit:4;stroke-dasharray:none;stroke-opacity:1"
         id="circle130"
         cx="2412.8271"
         cy="871.88611"
         r="3.1987891" />
    </g>
    <g
       id="g135"
       transform="translate(-20.810016,-95.02491)">
      <path
         id="path130"
         style="fill:#000000;fill-opacity:0.071001;stroke-width:0.389465"
         d="m 119.7063,147.86928 a 27.987965,27.987965 0 0 0 -4.88704,0.48214 27.987965,27.987965 0 0 1 22.85029,27.50581 h 10.02419 A 27.987965,27.987965 0 0 0 119.7063,147.86928 Z" />
      <path
         id="path131"
         style="fill:#000000;fill-opacity:0.0888461;stroke-width:0.249971"
         d="m 119.7063,157.89399 c -9.92094,-1e-4 -17.96357,8.0423 -17.96376,17.96324 1.4e-4,7e-5 3.8e-4,-7e-5 5.2e-4,0 h 35.92649 c -1.9e-4,-9.92074 -8.04251,-17.96306 -17.96325,-17.96324 z" />
      <path
         id="path132"
         style="fill:#000000;fill-opacity:0.0532683;stroke-width:0.249971"
         d="m 119.7063,157.89347 a 17.963578,17.963578 0 0 0 -3.13675,0.30954 17.963578,17.963578 0 0 1 14.66628,17.65422 h 6.43372 A 17.963578,17.963578 0 0 0 119.7063,157.89347 Z" />
      <rect
         style="fill:#000000;fill-opacity:0.0888461;stroke-width:0.261449"
         id="rect132"
         width="35.926495"
         height="26.238344"
         x="101.74306"
         y="175.85728" />
      <rect
         style="font-variation-settings:normal;opacity:1;vector-effect:none;fill:#000000;fill-opacity:0.0532683;stroke-width:0.527551;stroke-linecap:butt;stroke-linejoin:miter;stroke-miterlimit:4;stroke-dasharray:none;stroke-dashoffset:0;stroke-opacity:1;-inkscape-stroke:none;stop-color:#000000;stop-opacity:1"
         id="rect133"
         width="6.4337168"
         height="76.815369"
         x="131.23584"
         y="175.85728" />
      <rect
         style="font-variation-settings:normal;opacity:1;vector-effect:none;fill:#000000;fill-opacity:0.071001;stroke-width:0.480381;stroke-linecap:butt;stroke-linejoin:miter;stroke-miterlimit:4;stroke-dasharray:none;stroke-dashoffset:0;stroke-opacity:1;-inkscape-stroke:none;stop-color:#000000;stop-opacity:1"
         id="rect134"
         width="10.024714"
         height="26.238192"
         x="137.66956"
         y="175.85728" />
      <rect
         style="font-variation-settings:normal;opacity:1;vector-effect:none;fill:#000000;fill-opacity:0.0532683;stroke-width:0.236267;stroke-linecap:butt;stroke-linejoin:miter;stroke-miterlimit:4;stroke-dasharray:none;stroke-dashoffset:0;stroke-opacity:1;-inkscape-stroke:none;stop-color:#000000;stop-opacity:1"
         id="rect135"
         width="1.959886"
         height="50.577179"
         x="118.72636"
         y="202.09547" />
    </g>
    <rect
       style="font-variation-settings:normal;vector-effect:none;fill:#919191;fill-opacity:1;stroke-width:0.1861;stroke-linecap:butt;stroke-linejoin:miter;stroke-miterlimit:4;stroke-dasharray:none;stroke-dashoffset:0;stroke-opacity:1;-inkscape-stroke:none;stop-color:#000000"
       id="rect42"
       width="1.959886"
       height="31.379124"
       x="97.916344"
       y="59.482018" />
    <circle
       style="fill:#ccb695;fill-opacity:1;stroke-width:0.264583"
       id="circle90-5"
       cx="98.896133"
       cy="41.767784"
       r="19.013607" />
    <path
       id="path91-3"
       style="fill:#62492c;fill-opacity:1;stroke-width:0.264583"
       d="M 98.896284,22.7542 A 19.013607,19.013607 0 0 0 81.098924,35.21546 H 116.74119 A 19.013607,19.013607 0 0 0 98.896284,22.7542 Z" />
    <path
       id="path92-5"
       style="fill:#000000;fill-opacity:0.265286;stroke-width:0.264583"
       d="m 98.896284,22.7542 a 19.013607,19.013607 0 0 0 -3.32021,0.32763 19.013607,19.013607 0 0 1 15.523596,18.6862 19.013607,19.013607 0 0 1 -15.608856,18.66811 19.013607,19.013607 0 0 0 3.40547,0.34572 A 19.013607,19.013607 0 0 0 117.90959,41.76803 19.013607,19.013607 0 0 0 98.896284,22.7542 Z" />
    <rect
       style="fill:#333333;fill-opacity:1;stroke-width:0.264583"
       id="rect97-6"
       width="2.8625116"
       height="6.5366688"
       x="-43.199059"
       y="88.628845"
       ry="1.4312558"
       transform="rotate(-90)" />
    <path
       style="font-variation-settings:normal;fill:#4ec0ff;fill-opacity:1;stroke:#333333;stroke-width:2.365;stroke-linecap:round;stroke-linejoin:round;stroke-miterlimit:4;stroke-dasharray:none;stroke-dashoffset:0;stroke-opacity:1"
       d="M 108.35078,41.76782 H 103.9369"
       id="path98-2" />
    <path
       style="fill:none;fill-opacity:1;stroke:#333333;stroke-width:2.365;stroke-linecap:round;stroke-dasharray:none;stroke-opacity:1"
       id="circle63-7-9"
       sodipodi:type="arc"
       sodipodi:cx="78.436234"
       sodipodi:cy="-68.910202"
       sodipodi:rx="19.013607"
       sodipodi:ry="19.013607"
       sodipodi:start="0"
       sodipodi:end="1.0471976"
       sodipodi:open="true"
       sodipodi:arc-type="arc"
       d="m 97.449841,-68.910202 a 19.013607,19.013607 0 0 1 -9.506805,16.466267"
       transform="rotate(60)" />
    <rect
       style="fill:#ff0000;fill-opacity:1;stroke:none;stroke-width:1.8;stroke-linecap:round;stroke-linejoin:round"
       id="rect43"
       width="3.7647009"
       height="22.266054"
       x="70.908333"
       y="80.261864" />
    <rect
       style="fill:#62ba28;fill-opacity:1;stroke:none;stroke-width:1.8;stroke-linecap:round;stroke-linejoin:round"
       id="rect44"
       width="4.7747788"
       height="21.1367"
       x="122.10948"
       y="80.83242" />
  </g>
</svg>
